<?xml version="1.0" encoding="UTF-8"?>
<svg id="Layer_2" data-name="Layer 2" xmlns="http://www.w3.org/2000/svg" viewBox="0 0 382.65 382.65">
  <defs>
    <style>
      .cls-1 {
        fill: #3769d6;
      }

      .cls-1, .cls-2, .cls-3 {
        stroke-width: 0px;
      }

      .cls-2 {
        fill: #040404;
      }

      .cls-3 {
        fill: none;
      }
    </style>
  </defs>
  <g id="Layer_1-2" data-name="Layer 1">
    <g>
      <rect class="cls-3" width="382.65" height="382.65"/>
      <g>
        <g>
          <path class="cls-1" d="M118.58,298.41c15.93-2.48,27.91-11.38,39.98-20.04,12.87-9.25,25.32-19.08,39.19-26.9,27.88-15.72,56.78-17,86.61-6.5,2.71.95,3.61,2.18,2.78,5.24-1.34,4.95-2.93,9.77-4.96,14.48-.8,1.87-1.82,2.66-3.97,2.43-28.58-3.04-54.24,4.99-77.93,20.59-9.9,6.52-19.37,13.7-29.65,19.65-10.22,5.93-20.85,8.99-32.49,4.52-7.34-2.81-13.43-7.48-19.55-13.47Z"/>
          <path class="cls-1" d="M161.69,322.87c10.51-1.5,19.35-6.62,28.16-11.88,12.3-7.34,24.05-15.65,37.29-21.37,13.46-5.82,27.45-8.91,42.16-8.46,1.06.03,2.52-.46,3.05.74.42.95-.75,1.74-1.32,2.53-18.64,25.59-43.98,38.99-75.35,41.62-10.69.89-21.16-.04-31.56-2.41-.83-.19-1.62-.51-2.43-.77Z"/>
          <path class="cls-1" d="M172.9,246.62c-14.16,9.8-26.46,21.59-40.62,30.95-4.59,3.04-9.51,5.39-15.21,5.72-7.36.42-12.73-2.81-16.73-8.68-1.05-1.54-1.92-3.21-2.73-4.89-3.31-6.87-2.31-11.18,3.66-16.2,6.05-5.09,13.38-7.14,20.91-8.39,16.68-2.76,33.33-1.43,49.95.81.19.03.35.3.78.68Z"/>
        </g>
        <g>
          <path class="cls-2" d="M192.21,233.76c-9.21.09-16.62-7.24-16.66-16.49-.05-9.02,7.26-16.44,16.29-16.53,9.09-.1,16.78,7.48,16.78,16.54,0,8.91-7.46,16.4-16.4,16.49Z"/>
          <g>
            <path class="cls-2" d="M230.06,228.61c5.02-25.18-11.51-44.61-31.36-48.47-24.2-4.71-47.12,14.31-46.82,38.93.09,7.12.09,7.14-6.85,8.11-2.47.35-4.96.58-7.44.8-.86.07-2.12.29-2.55-.17-3.59-3.84-8.17-2.24-12.39-2.36-4.49-.12-8.99.13-13.49.07-2.17-.03-2.85.65-2.41,2.85.61,3.04,2.18,6.77,1.03,9.02-1.13,2.22-5.22,2.83-7.87,4.39-2.66,1.57-5.14,3.45-7.7,5.19-.19-.21-.5-.38-.51-.57-.31-6.68-5.44-6.93-10.16-7.47-3.13-.36-4.54-1.47-5-4.93-1.27-9.73-1.33-19.4-.23-29.13.24-2.09,1.12-3.27,3.19-3.27,7.88.03,11.34-3.64,12.79-11.65,1.61-8.89,6.15-17.07,11.04-24.79,1.12-1.77,1.18-3.11-.13-4.66-.56-.66-.96-1.45-1.45-2.18-4.78-7.11-4.86-7.18.62-13.74,5.29-6.34,11.22-12.05,17.72-17.18,1.52-1.2,2.68-1.21,3.88.04,5.86,6.12,11.45,5.7,18.34.9,7.15-4.98,15.67-7.6,24.26-9.41,2.77-.58,4.58-1.6,4.63-4.64,0-.12.04-.25.07-.37,1.93-9.68,1.93-9.71,11.6-10.46,7.62-.59,15.22-.11,22.82.62,2.02.2,3.28.87,3.25,3.15-.09,7.78,3.37,11.45,11.49,12.88,9.53,1.68,18.32,6.34,26.47,11.78,1.6,1.07,2.82,1.35,4.22-.06.17-.17.4-.29.61-.43q8.07-5.58,15.46.81c5.95,5.19,11.2,11.03,15.99,17.31,1.08,1.42,1.36,2.57.07,3.83-5.68,5.59-5.31,10.78-.81,17.44,5.14,7.6,8.06,16.54,9.8,25.68.45,2.39,1.46,3.45,3.98,3.95,8.93,1.79,8.91,1.92,9.56,11.09.52,7.38.26,14.73-.76,22.05-.61,4.36-4.66,7.13-8.52,5.22-6.28-3.11-12.59-5.98-19.45-7.56-2.33-.54-1.33-2.36-1.07-3.67.4-2.02-.09-2.68-2.24-2.46-6.12.63-12.23.05-18.32-.48-2.31-.2-4.47-.12-6.25,1.7-.5.51-1.26,1.04-1.92,1.07-5.69.27-11.4.3-17.19,1.24ZM196.81,154.26c-.1,2.23-.62,4.54.92,6.49,1.6,2.04,2.6,4.2,2.19,6.86-.22,1.45.38,2.25,1.89,2.63,5.69,1.45,11.02,3.83,16.17,6.62,1.25.68,2.28.96,3.26-.31,1.78-2.32,4.18-3.39,7.03-3.75,1.53-.19,2.83-1.02,3.72-2.3,3.51-5.07,8.25-8.99,12.59-13.26,1.92-1.89,1.88-3-.18-4.58-13.12-10.07-27.71-16.47-44.29-18.07-2.47-.24-2.94.64-2.88,2.85.16,5.6.16,11.22-.41,16.81ZM263.49,212.9c2.83,0,6.2-.11,9.57.04,2.45.1,3.14-.64,2.87-3.2-1.6-15.43-7.59-29.07-16.49-41.57-.86-1.21-1.87-2.33-2.91-3.4-.88-.92-1.76-1.27-2.68.16-2.91,4.49-7.28,7.48-11.27,10.87-1.91,1.62-4.05,3.17-4.84,5.6-.93,2.87-1.71,5.71-4.26,7.64-1.22.93-.63,1.9-.04,2.94,2.89,5.11,5.58,10.32,6.6,16.18.29,1.69,1.07,2.32,2.78,2.1,2.15-.28,4.29-.07,6.01,1.44,1.84,1.62,3.95,1.94,6.28,1.75,2.61-.22,5.23-.34,8.39-.54ZM117.45,213.36s0-.09,0-.13c3.49.22,6.98.39,10.46.66,1.93.15,3.78.02,5.33-1.23,1.95-1.58,4.12-2.32,6.61-2.01,1.71.21,2.39-.44,2.68-2.16.77-4.59,2.41-8.92,4.89-12.85,1.95-3.09,3.18-5.88-.63-8.52-.62-.43-1.02-1.46-1.15-2.27-.69-4.12-3.3-6.89-6.38-9.34-3.82-3.04-7.45-6.28-10.48-10.12-1.19-1.51-1.89-1.34-3.13,0-3.76,4.09-6.44,8.86-9.11,13.65-5.41,9.7-8.52,20.11-9.75,31.15-.31,2.76.55,3.47,3.16,3.22,2.47-.24,4.99-.05,7.49-.05ZM184.98,144.25c0-2.5-.12-5.01.04-7.49.12-1.94-.67-2.41-2.4-2.12-3.32.55-6.69.88-9.96,1.62-12.97,2.94-24.74,8.41-34.95,17.02-1.01.85-2.49,1.57-.66,3.11,4.99,4.21,8.89,9.46,13.34,14.18,1.41,1.5,3.06,2.69,5.08,2.96,1.99.27,3.48,1.07,4.73,2.62,1.39,1.74,3,1.79,4.92.57,4.66-2.97,9.65-5.21,15.14-6.17,1.64-.29,2.39-1.03,2.18-2.76-.31-2.58.26-4.89,2-6.97,1.26-1.5,1.41-3.43,1.1-5.35-.6-3.72-.58-7.47-.56-11.22Z"/>
            <g>
              <path class="cls-2" d="M306.73,106.31c-1,4.49-3.78,8.18-6.66,11.77-4.37,5.44-9,10.66-14.23,15.3-.89.78-2.38,4.11-2.98-.25-3.08-.21-4.19-3.08-6.28-4.63-1.43-1.05-1.78-1.96-.41-3.54,6.85-7.84,14.51-14.7,23.55-19.92,1.27-.73,2.72-1.3,4.15-1.59,2.14-.43,2.98.49,2.85,2.85ZM300.64,113.93c.06-.25.13-.51.19-.76-.47-.1-.5.19-.48.53-.25.17-.5.35-.75.52.14.13.29.27.43.4.2-.23.41-.46.61-.69ZM298.52,115.6c-1.81,2.05-3.93,3.87-4.98,6.51,2.73-1.19,4.24-3.47,5.54-5.93.32-.27.95-.5.45-1.02-.5-.51-.75.09-1,.44Z"/>
              <path class="cls-2" d="M107.84,127.03c-2.64-.42-3.18-.16-3.7,1.82-.57,2.2-3.28,3.88-5.13,5.7-.75.75-1.36-.06-1.89-.51-8.08-6.93-15.14-14.73-20.28-24.14-.29-.54-.47-1.14-.71-1.71-.53-1.28-1.2-2.67-.13-3.86,1.21-1.32,2.9-.84,4.2-.21,10.78,5.17,18.59,13.88,27.64,22.91ZM87.77,111.97c.25.2.49.4.74.6.79.86,1.58,1.7,3.09,2.15-.27-1.86-1.36-2.31-2.49-2.71-.28-.22-.56-.44-.84-.66-.41-.35-.81-.7-1.22-1.05-.38-.11-.76-.23-1.14-.34-.27-.95-.73-1.36-1.6-.54.46-.59.13-.81-.44-.86-.2-.02-.6.1-.6.13.07.7.69.47,1.1.61.32.67.8.96,1.54.67-.25.69.24.74.7.8.39.4.77.81,1.16,1.21ZM91.81,114.43c.2,1.52,1.09,2.25,2.8,2.72-.36-1.97-1.58-2.34-2.8-2.72Z"/>
              <path class="cls-2" d="M66.43,214.6c-8.3-.72-16.39-.51-24.53,1.28.82.68,1.47.9,2.66.81,6.34-.49,12.7-.82,19.08-.5,2.23.11,2.88.84,2.86,3.1-.06,5.98.08,6.08-5.81,6.48-8.89.59-17.69-.19-26.33-2.42-.84-.22-1.68-.49-2.48-.83-1.49-.64-3.37-1.31-3.38-3.1,0-1.84,1.95-2.43,3.44-2.96,11.09-3.89,22.56-3.62,34.05-2.91.1,0,.18.41.45,1.05Z"/>
              <path class="cls-2" d="M344.01,222.21c-3.47-.9-5.89-.57-8.3-.29-5.86.67-11.72.44-17.59.37-2.4-.03-3.66-1-2.95-3.36.59-1.97-2.09-5.47,1.7-5.82,11.35-1.06,22.7-.87,33.7,2.75,1.61.53,3.65,1.28,3.61,3.32-.03,1.84-1.99,2.45-3.5,2.94-11.37,3.71-23.07,3.69-34.83,3.01-.26-.01-.49-.43-1.18-1.07,9.75-.6,19.21,1.11,29.34-1.84Z"/>
              <path class="cls-2" d="M196.1,94.36c-.02-7.43.76-14.45-.96-21.51-1.54.85-1.01,1.81-.99,2.6.11,3.99.44,7.98.36,11.96-.17,8.72.4,6.36-7.12,6.81-1.72.1-2.4-.37-2.49-2.22-.49-10.13-.16-20.2,2.36-30.08.58-2.28.91-5.64,3.91-5.64,2.75,0,3.28,3.21,3.81,5.4,2.38,9.87,3.09,19.92,2.43,30.05-.05.81-.03,1.73-1.32,2.63ZM193.73,69.25c.28,1.08-.48,2.51,1.4,3.5-.21-1.47-.38-2.58-.54-3.7-.23-2.21-.58-4.38-2.38-7.15.64,3.09,1.08,5.22,1.52,7.36Z"/>
            </g>
          </g>
        </g>
      </g>
    </g>
  </g>
</svg>